<?xml version="1.0" encoding="UTF-8" standalone="no"?>
<!-- Created with Inkscape (http://www.inkscape.org/) -->

<svg
   xmlns:dc="http://purl.org/dc/elements/1.1/"
   xmlns:cc="http://creativecommons.org/ns#"
   xmlns:rdf="http://www.w3.org/1999/02/22-rdf-syntax-ns#"
   xmlns:svg="http://www.w3.org/2000/svg"
   xmlns="http://www.w3.org/2000/svg"
   xmlns:sodipodi="http://sodipodi.sourceforge.net/DTD/sodipodi-0.dtd"
   xmlns:inkscape="http://www.inkscape.org/namespaces/inkscape"
   inkscape:version="0.91 r13725"
   version="1.1"
   id="svg2"
   viewBox="0 0 800 600"
   height="600"
   width="800"
   sodipodi:docname="setup3.svg">
  <sodipodi:namedview
     inkscape:window-maximized="1"
     inkscape:window-y="0"
     inkscape:window-x="1600"
     inkscape:window-height="1025"
     inkscape:window-width="1680"
     units="px"
     showgrid="false"
     inkscape:current-layer="svg2"
     inkscape:document-units="px"
     inkscape:cy="322.50884"
     inkscape:cx="398.84319"
     inkscape:zoom="1.0742188"
     inkscape:pageshadow="2"
     inkscape:pageopacity="0.0"
     borderopacity="1.0"
     bordercolor="#666666"
     pagecolor="#ffffff"
     id="base" />
  <defs
     id="defs4" />
  <metadata
     id="metadata7">
    <rdf:RDF>
      <cc:Work
         rdf:about="">
        <dc:format>image/svg+xml</dc:format>
        <dc:type
           rdf:resource="http://purl.org/dc/dcmitype/StillImage" />
        <dc:title></dc:title>
      </cc:Work>
    </rdf:RDF>
  </metadata>
  <g
     inkscape:label="Layer 1"
     inkscape:groupmode="layer"
     id="layer1"
     transform="translate(0,-452.36216)">
    <g
       id="g4141">
      <g
         id="content"
         transform="matrix(0.42857143,0,0,-0.42857143,-75,300)"
         xml:space="preserve"
         stroke-miterlimit="10.433"
         font-style="normal"
         font-variant="normal"
         font-weight="normal"
         font-stretch="normal"
         font-size-adjust="none"
         letter-spacing="normal"
         word-spacing="normal"
         style="font-style:normal;font-variant:normal;font-weight:normal;font-stretch:normal;letter-spacing:normal;word-spacing:normal;text-anchor:start;fill:none;fill-opacity:1;fill-rule:evenodd;stroke:#000000;stroke-linecap:butt;stroke-linejoin:miter;stroke-miterlimit:10.43299961;stroke-dasharray:none;stroke-dashoffset:0;stroke-opacity:1"><path
           d="m 482.7,425.98 -0.17,-0.05 -0.16,-0.06 -0.15,-0.06 -0.15,-0.07 -0.15,-0.08 -0.13,-0.08 -0.14,-0.09 -0.13,-0.09 -0.12,-0.09 -0.12,-0.1 -0.11,-0.1 -0.11,-0.11 -0.1,-0.11 -0.1,-0.12 -0.09,-0.11 -0.09,-0.12 -0.08,-0.12 -0.07,-0.13 -0.08,-0.12 -0.06,-0.13 -0.06,-0.12 -0.06,-0.13 -0.05,-0.13 -0.04,-0.13 -0.04,-0.13 -0.03,-0.12 -0.03,-0.13 -0.03,-0.13 -0.01,-0.12 -0.02,-0.12 -0.01,-0.12 0,-0.12 c 0,-1.1 0.85,-2.29 2.49,-2.29 1.74,0 3.59,1.44 3.59,3.88 0,2.64 -2.64,4.39 -5.68,4.39 -2.84,0 -4.68,-2.14 -5.33,-3.04 -1.25,2.09 -4.04,3.04 -6.88,3.04 -6.27,0 -9.66,-6.13 -9.66,-7.77 0,-0.7 0.75,-0.7 1.19,-0.7 0.6,0 0.95,0 1.15,0.65 1.45,4.53 5.03,6.02 7.08,6.02 1.89,0 2.79,-0.9 2.79,-2.49 0,-0.94 -0.7,-3.68 -1.15,-5.48 l -1.69,-6.82 c -0.75,-3.04 -2.55,-4.54 -4.24,-4.54 -0.25,0 -1.39,0 -2.39,0.75 1.79,0.5 2.69,2.19 2.69,3.44 0,1.1 -0.85,2.29 -2.49,2.29 -1.75,0 -3.59,-1.44 -3.59,-3.89 0,-2.64 2.64,-4.38 5.68,-4.38 2.84,0 4.68,2.14 5.33,3.04 1.25,-2.09 4.04,-3.04 6.88,-3.04 6.27,0 9.66,6.13 9.66,7.77 0,0.7 -0.75,0.7 -1.2,0.7 -0.6,0 -0.94,0 -1.14,-0.65 -1.45,-4.53 -5.03,-6.03 -7.08,-6.03 -1.89,0 -2.79,0.9 -2.79,2.5 0,1.04 0.65,3.68 1.1,5.52 0.35,1.3 1.49,5.98 1.74,6.78 0.75,2.99 2.5,4.53 4.24,4.53 0.25,0 1.39,0 2.39,-0.74 z"
           id="path4144"
           inkscape:connector-curvature="0"
           style="fill:#000000;stroke-width:0" /><path
           d="m 498.01,412.53 3.52,0 c 0.63,0 0.84,0 1.04,0.21 0.22,0.17 0.36,0.7 0.36,0.97 0,0.77 -0.74,0.77 -1.3,0.77 l -3.13,0 c 0.27,1.15 0.27,1.22 0.62,2.55 0.21,0.87 0.59,2.4 0.59,2.65 0,1.08 -0.8,1.74 -1.84,1.74 -1.99,0 -2.44,-1.81 -2.62,-2.62 -0.38,-1.42 -0.73,-2.85 -1.08,-4.32 l -3.52,0 c -0.63,0 -0.84,0 -1.04,-0.21 -0.22,-0.17 -0.36,-0.7 -0.36,-0.97 0,-0.77 0.74,-0.77 1.3,-0.77 l 3.1,0 -2.48,-10.36 c 0,-2.33 2.58,-3.45 4.99,-3.45 4.71,0 7.32,4.67 7.32,5.44 0,0.63 -0.59,0.63 -1.11,0.63 -0.84,0 -0.84,-0.04 -1.16,-0.67 -1.32,-2.75 -3.45,-3.8 -4.81,-3.8 -0.52,0 -1.01,0.22 -1.01,1.4 0,0.45 0,0.52 0.18,1.19 z"
           id="path4146"
           inkscape:connector-curvature="0"
           style="fill:#000000;stroke-width:0" /><path
           d="m 556.22,422.29 0.14,0 0.15,0 0.15,0.01 0.07,0 0.07,0 0.07,0.01 0.08,0.01 0.07,0.01 0.07,0.01 0.06,0.02 0.07,0.01 0.07,0.02 0.06,0.02 0.06,0.03 0.06,0.03 0.05,0.03 0.06,0.03 0.05,0.04 0.04,0.04 0.05,0.05 0.03,0.05 0.02,0.03 0.02,0.02 0.02,0.03 0.01,0.03 0.02,0.03 0.01,0.04 0.01,0.03 0.01,0.04 0.01,0.03 0.01,0.04 0.01,0.04 0,0.04 0.01,0.04 0,0.04 0,0.05 0,0.05 c 0,0.99 -0.94,0.99 -1.64,0.99 l -29.84,0 c -0.7,0 -1.64,0 -1.64,-0.99 0,-1 0.94,-1 1.69,-1 z"
           id="path4148"
           inkscape:connector-curvature="0"
           style="fill:#000000;stroke-width:0" /><path
           d="m 556.27,412.62 0.13,0.01 0.14,0 0.14,0 0.07,0.01 0.07,0 0.07,0.01 0.07,0.01 0.07,0.01 0.07,0.01 0.06,0.01 0.07,0.02 0.06,0.02 0.06,0.02 0.06,0.02 0.06,0.03 0.06,0.03 0.05,0.04 0.05,0.04 0.04,0.04 0.05,0.04 0.02,0.03 0.02,0.03 0.01,0.02 0.02,0.03 0.02,0.03 0.01,0.03 0.02,0.03 0.01,0.03 0.01,0.04 0.01,0.03 0.01,0.04 0.01,0.04 0.01,0.04 0,0.04 0.01,0.04 0,0.04 0,0.05 0,0.04 c 0,1 -0.94,1 -1.69,1 l -29.74,0 c -0.75,0 -1.69,0 -1.69,-1 0,-1 0.94,-1 1.64,-1 z"
           id="path4150"
           inkscape:connector-curvature="0"
           style="fill:#000000;stroke-width:0" /><path
           d="m 612.9,417.86 0.02,0.03 0.01,0.02 0.01,0.03 0.01,0.03 0.02,0.03 0.01,0.03 0.01,0.02 0.01,0.03 0.01,0.02 0.01,0.03 0.02,0.04 0.02,0.05 0.02,0.04 0.01,0.04 0.02,0.04 0.01,0.04 0.01,0.03 0.01,0.03 0.01,0.03 0.01,0.03 0.01,0.03 0,0.02 0.01,0.03 0,0.02 0.01,0.02 0,0.02 0,0.01 0.01,0.02 0,0.01 0,0.02 0,0.01 0,0.01 0,0.01 0,0.01 0,0 0,0.01 0,0 c 0,0.9 -0.94,0.9 -1.19,0.9 -0.8,0 -0.85,-0.1 -1.45,-1.45 -2.99,-6.57 -5.58,-9.86 -13.99,-9.86 l -6.48,0 c -0.75,0 -0.85,0 -1.19,0.05 l 3.48,14 3.44,0 c 2.94,0 3.93,-0.45 3.93,-2.14 0,-0.8 -0.34,-2.14 -0.4,-2.29 l -0.05,-0.5 c 0,-0.75 0.65,-0.9 1.15,-0.9 0.95,0 1,0.3 1.25,1.2 l 2.78,11.1 c 0.2,0.65 0.2,0.75 0.2,0.8 0,0.9 -0.99,0.9 -1.19,0.9 -0.95,0 -1.05,-0.35 -1.29,-1.3 -1,-3.73 -2.5,-4.53 -6.23,-4.53 l -2.99,0 3.14,12.7 c 0.65,0.1 1.19,0.1 1.69,0.1 l 6.53,0 c 5.43,0 7.62,-1.19 7.62,-5.92 0,-0.9 -0.2,-2 -0.2,-2.8 0,-0.94 0.94,-0.94 1.19,-0.94 1.05,0 1.1,0.5 1.2,1.39 l 0.9,8.92 0.05,0.8 c 0,0.89 -0.85,0.89 -1.65,0.89 l -27.6,0 c -1.04,0 -1.09,-0.05 -1.34,-0.25 -0.35,-0.24 -0.45,-1.14 -0.45,-1.19 0,-0.9 0.7,-0.9 2.04,-0.9 1.05,0 2,-0.05 3.05,-0.1 l -7.03,-28.09 c -0.2,-0.8 -0.25,-0.85 -1.15,-0.95 -0.84,-0.05 -1.84,-0.05 -2.64,-0.05 -1.29,0 -1.39,0 -1.59,-0.1 -0.6,-0.35 -0.6,-1.14 -0.6,-1.34 0,-0.9 0.85,-0.9 1.7,-0.9 l 28.44,0 c 1.19,0 1.39,0 1.84,1.05 z"
           id="path4152"
           inkscape:connector-curvature="0"
           style="fill:#000000;stroke-width:0" /></g>    </g>
  </g>
  <g
     id="g4694"
     transform="matrix(1.6314904,0,0,1.6314904,311.4482,-104.24699)">
    <g
       word-spacing="normal"
       letter-spacing="normal"
       font-size-adjust="none"
       font-stretch="normal"
       font-weight="normal"
       font-variant="normal"
       font-style="normal"
       stroke-miterlimit="10.433"
       xml:space="preserve"
       transform="matrix(0.42857143,0,0,-0.42857143,-75,300)"
       id="g4696"
       style="font-style:normal;font-variant:normal;font-weight:normal;font-stretch:normal;letter-spacing:normal;word-spacing:normal;text-anchor:start;fill:none;fill-opacity:1;fill-rule:evenodd;stroke:#000000;stroke-linecap:butt;stroke-linejoin:miter;stroke-miterlimit:10.43299961;stroke-dasharray:none;stroke-dashoffset:0;stroke-opacity:1"><path
         id="path4698"
         d="m 482.7,425.98 -0.17,-0.05 -0.16,-0.06 -0.15,-0.06 -0.15,-0.07 -0.15,-0.08 -0.13,-0.08 -0.14,-0.09 -0.13,-0.09 -0.12,-0.09 -0.12,-0.1 -0.11,-0.1 -0.11,-0.11 -0.1,-0.11 -0.1,-0.12 -0.09,-0.11 -0.09,-0.12 -0.08,-0.12 -0.07,-0.13 -0.08,-0.12 -0.06,-0.13 -0.06,-0.12 -0.06,-0.13 -0.05,-0.13 -0.04,-0.13 -0.04,-0.13 -0.03,-0.12 -0.03,-0.13 -0.03,-0.13 -0.01,-0.12 -0.02,-0.12 -0.01,-0.12 0,-0.12 c 0,-1.1 0.85,-2.29 2.49,-2.29 1.74,0 3.59,1.44 3.59,3.88 0,2.64 -2.64,4.39 -5.68,4.39 -2.84,0 -4.68,-2.14 -5.33,-3.04 -1.25,2.09 -4.04,3.04 -6.88,3.04 -6.27,0 -9.66,-6.13 -9.66,-7.77 0,-0.7 0.75,-0.7 1.19,-0.7 0.6,0 0.95,0 1.15,0.65 1.45,4.53 5.03,6.02 7.08,6.02 1.89,0 2.79,-0.9 2.79,-2.49 0,-0.94 -0.7,-3.68 -1.15,-5.48 l -1.69,-6.82 c -0.75,-3.04 -2.55,-4.54 -4.24,-4.54 -0.25,0 -1.39,0 -2.39,0.75 1.79,0.5 2.69,2.19 2.69,3.44 0,1.1 -0.85,2.29 -2.49,2.29 -1.75,0 -3.59,-1.44 -3.59,-3.89 0,-2.64 2.64,-4.38 5.68,-4.38 2.84,0 4.68,2.14 5.33,3.04 1.25,-2.09 4.04,-3.04 6.88,-3.04 6.27,0 9.66,6.13 9.66,7.77 0,0.7 -0.75,0.7 -1.2,0.7 -0.6,0 -0.94,0 -1.14,-0.65 -1.45,-4.53 -5.03,-6.03 -7.08,-6.03 -1.89,0 -2.79,0.9 -2.79,2.5 0,1.04 0.65,3.68 1.1,5.52 0.35,1.3 1.49,5.98 1.74,6.78 0.75,2.99 2.5,4.53 4.24,4.53 0.25,0 1.39,0 2.39,-0.74 z"
         inkscape:connector-curvature="0"
         style="fill:#000000;stroke-width:0" /><path
         id="path4700"
         d="m 496.58,412.77 3.55,0 c 0.67,0 1.12,0 1.12,0.77 0,0.49 -0.45,0.49 -1.05,0.49 l -3.31,0 1.29,5.16 c 0.03,0.17 0.11,0.35 0.11,0.49 0,0.62 -0.49,1.11 -1.19,1.11 -0.87,0 -1.39,-0.59 -1.64,-1.5 -0.24,-0.87 0.21,0.81 -1.32,-5.26 l -3.56,0 c -0.66,0 -1.12,0 -1.12,-0.77 0,-0.49 0.42,-0.49 1.05,-0.49 l 3.31,0 -2.05,-8.23 c -0.21,-0.87 -0.53,-2.12 -0.53,-2.58 0,-2.05 1.74,-3.31 3.73,-3.31 3.87,0 6.07,4.88 6.07,5.33 0,0.46 -0.45,0.46 -0.56,0.46 -0.41,0 -0.45,-0.07 -0.73,-0.66 -0.98,-2.2 -2.75,-4.15 -4.67,-4.15 -0.73,0 -1.22,0.45 -1.22,1.71 0,0.34 0.14,1.08 0.21,1.43 z"
         inkscape:connector-curvature="0"
         style="fill:#000000;stroke-width:0" /><path
         id="path4702"
         d="m 554.22,422.29 0.14,0 0.15,0 0.15,0.01 0.07,0 0.07,0 0.07,0.01 0.08,0.01 0.07,0.01 0.07,0.01 0.06,0.02 0.07,0.01 0.07,0.02 0.06,0.02 0.06,0.03 0.06,0.03 0.05,0.03 0.06,0.03 0.05,0.04 0.04,0.04 0.05,0.05 0.03,0.05 0.02,0.03 0.02,0.02 0.02,0.03 0.01,0.03 0.02,0.03 0.01,0.04 0.01,0.03 0.01,0.04 0.01,0.03 0.01,0.04 0.01,0.04 0,0.04 0.01,0.04 0,0.04 0,0.05 0,0.05 c 0,0.99 -0.94,0.99 -1.64,0.99 l -29.84,0 c -0.7,0 -1.64,0 -1.64,-0.99 0,-1 0.94,-1 1.69,-1 z"
         inkscape:connector-curvature="0"
         style="fill:#000000;stroke-width:0" /><path
         id="path4704"
         d="m 554.27,412.62 0.13,0.01 0.14,0 0.14,0 0.07,0.01 0.07,0 0.07,0.01 0.07,0.01 0.07,0.01 0.07,0.01 0.06,0.01 0.07,0.02 0.06,0.02 0.06,0.02 0.06,0.02 0.06,0.03 0.06,0.03 0.05,0.04 0.05,0.04 0.04,0.04 0.05,0.04 0.02,0.03 0.02,0.03 0.01,0.02 0.02,0.03 0.02,0.03 0.01,0.03 0.02,0.03 0.01,0.03 0.01,0.04 0.01,0.03 0.01,0.04 0.01,0.04 0.01,0.04 0,0.04 0.01,0.04 0,0.04 0,0.05 0,0.04 c 0,1 -0.94,1 -1.69,1 l -29.74,0 c -0.75,0 -1.69,0 -1.69,-1 0,-1 0.94,-1 1.64,-1 z"
         inkscape:connector-curvature="0"
         style="fill:#000000;stroke-width:0" /><path
         id="path4706"
         d="m 610.9,417.86 0.02,0.03 0.01,0.02 0.01,0.03 0.01,0.03 0.02,0.03 0.01,0.03 0.01,0.02 0.01,0.03 0.01,0.02 0.01,0.03 0.02,0.04 0.02,0.05 0.02,0.04 0.01,0.04 0.02,0.04 0.01,0.04 0.01,0.03 0.01,0.03 0.01,0.03 0.01,0.03 0.01,0.03 0,0.02 0.01,0.03 0,0.02 0.01,0.02 0,0.02 0,0.01 0.01,0.02 0,0.01 0,0.02 0,0.01 0,0.01 0,0.01 0,0.01 0,0 0,0.01 0,0 c 0,0.9 -0.94,0.9 -1.19,0.9 -0.8,0 -0.85,-0.1 -1.45,-1.45 -2.99,-6.57 -5.58,-9.86 -13.99,-9.86 l -6.48,0 c -0.75,0 -0.85,0 -1.19,0.05 l 3.48,14 3.44,0 c 2.94,0 3.93,-0.45 3.93,-2.14 0,-0.8 -0.34,-2.14 -0.4,-2.29 l -0.05,-0.5 c 0,-0.75 0.65,-0.9 1.15,-0.9 0.95,0 1,0.3 1.25,1.2 l 2.78,11.1 c 0.2,0.65 0.2,0.75 0.2,0.8 0,0.9 -0.99,0.9 -1.19,0.9 -0.95,0 -1.05,-0.35 -1.29,-1.3 -1,-3.73 -2.5,-4.53 -6.23,-4.53 l -2.99,0 3.14,12.7 c 0.65,0.1 1.19,0.1 1.69,0.1 l 6.53,0 c 5.43,0 7.62,-1.19 7.62,-5.92 0,-0.9 -0.2,-2 -0.2,-2.8 0,-0.94 0.94,-0.94 1.19,-0.94 1.05,0 1.1,0.5 1.2,1.39 l 0.9,8.92 0.05,0.8 c 0,0.89 -0.85,0.89 -1.65,0.89 l -27.6,0 c -1.04,0 -1.09,-0.05 -1.34,-0.25 -0.35,-0.24 -0.45,-1.14 -0.45,-1.19 0,-0.9 0.7,-0.9 2.04,-0.9 1.05,0 2,-0.05 3.05,-0.1 l -7.03,-28.09 c -0.2,-0.8 -0.25,-0.85 -1.15,-0.95 -0.84,-0.05 -1.84,-0.05 -2.64,-0.05 -1.29,0 -1.39,0 -1.59,-0.1 -0.6,-0.35 -0.6,-1.14 -0.6,-1.34 0,-0.9 0.85,-0.9 1.7,-0.9 l 28.44,0 c 1.19,0 1.39,0 1.84,1.05 z"
         inkscape:connector-curvature="0"
         style="fill:#000000;stroke-width:0" /><path
         id="path4708"
         d="m 621.58,412.77 3.55,0 c 0.67,0 1.12,0 1.12,0.77 0,0.49 -0.45,0.49 -1.05,0.49 l -3.31,0 1.29,5.16 c 0.04,0.17 0.1,0.35 0.1,0.49 0,0.62 -0.48,1.11 -1.18,1.11 -0.87,0 -1.39,-0.59 -1.64,-1.5 -0.24,-0.87 0.21,0.81 -1.32,-5.26 l -3.56,0 c -0.66,0 -1.11,0 -1.11,-0.77 0,-0.49 0.41,-0.49 1.04,-0.49 l 3.31,0 -2.05,-8.23 c -0.21,-0.87 -0.53,-2.12 -0.53,-2.58 0,-2.05 1.74,-3.31 3.73,-3.31 3.87,0 6.07,4.88 6.07,5.33 0,0.46 -0.45,0.46 -0.56,0.46 -0.41,0 -0.45,-0.07 -0.73,-0.66 -0.98,-2.2 -2.75,-4.15 -4.67,-4.15 -0.73,0 -1.22,0.45 -1.22,1.71 0,0.34 0.14,1.08 0.21,1.43 z"
         inkscape:connector-curvature="0"
         style="fill:#000000;stroke-width:0" /><path
         id="path4710"
         d="m 656.7,425.98 -0.17,-0.05 -0.16,-0.06 -0.15,-0.06 -0.15,-0.07 -0.15,-0.08 -0.13,-0.08 -0.14,-0.09 -0.13,-0.09 -0.12,-0.09 -0.12,-0.1 -0.11,-0.1 -0.11,-0.11 -0.1,-0.11 -0.1,-0.12 -0.09,-0.11 -0.09,-0.12 -0.08,-0.12 -0.07,-0.13 -0.08,-0.12 -0.06,-0.13 -0.06,-0.12 -0.06,-0.13 -0.05,-0.13 -0.04,-0.13 -0.04,-0.13 -0.03,-0.12 -0.03,-0.13 -0.03,-0.13 -0.01,-0.12 -0.02,-0.12 -0.01,-0.12 0,-0.12 c 0,-1.1 0.84,-2.29 2.49,-2.29 1.74,0 3.59,1.44 3.59,3.88 0,2.64 -2.64,4.39 -5.68,4.39 -2.84,0 -4.68,-2.14 -5.33,-3.04 -1.25,2.09 -4.04,3.04 -6.88,3.04 -6.27,0 -9.66,-6.13 -9.66,-7.77 0,-0.7 0.75,-0.7 1.19,-0.7 0.6,0 0.95,0 1.15,0.65 1.45,4.53 5.03,6.02 7.08,6.02 1.89,0 2.79,-0.9 2.79,-2.49 0,-0.94 -0.7,-3.68 -1.15,-5.48 l -1.69,-6.82 c -0.75,-3.04 -2.55,-4.54 -4.24,-4.54 -0.25,0 -1.39,0 -2.39,0.75 1.79,0.5 2.69,2.19 2.69,3.44 0,1.1 -0.85,2.29 -2.49,2.29 -1.75,0 -3.58,-1.44 -3.58,-3.89 0,-2.64 2.63,-4.38 5.67,-4.38 2.84,0 4.68,2.14 5.33,3.04 1.25,-2.09 4.04,-3.04 6.88,-3.04 6.27,0 9.66,6.13 9.66,7.77 0,0.7 -0.75,0.7 -1.2,0.7 -0.59,0 -0.94,0 -1.14,-0.65 -1.45,-4.53 -5.03,-6.03 -7.08,-6.03 -1.89,0 -2.79,0.9 -2.79,2.5 0,1.04 0.65,3.68 1.1,5.52 0.35,1.3 1.49,5.98 1.74,6.78 0.75,2.99 2.5,4.53 4.24,4.53 0.25,0 1.39,0 2.39,-0.74 z"
         inkscape:connector-curvature="0"
         style="fill:#000000;stroke-width:0" /><path
         id="path4712"
         d="m 671.58,412.77 3.55,0 c 0.67,0 1.12,0 1.12,0.77 0,0.49 -0.45,0.49 -1.05,0.49 l -3.31,0 1.29,5.16 c 0.04,0.17 0.1,0.35 0.1,0.49 0,0.62 -0.48,1.11 -1.18,1.11 -0.87,0 -1.39,-0.59 -1.64,-1.5 -0.24,-0.87 0.21,0.81 -1.32,-5.26 l -3.56,0 c -0.66,0 -1.11,0 -1.11,-0.77 0,-0.49 0.41,-0.49 1.04,-0.49 l 3.31,0 -2.05,-8.23 c -0.21,-0.87 -0.53,-2.12 -0.53,-2.58 0,-2.05 1.74,-3.31 3.73,-3.31 3.87,0 6.07,4.88 6.07,5.33 0,0.46 -0.45,0.46 -0.56,0.46 -0.41,0 -0.45,-0.07 -0.73,-0.66 -0.98,-2.2 -2.75,-4.15 -4.67,-4.15 -0.73,0 -1.22,0.45 -1.22,1.71 0,0.34 0.14,1.08 0.21,1.43 z"
         inkscape:connector-curvature="0"
         style="fill:#000000;stroke-width:0" /><path
         id="path4714"
         d="m 703.94,406.88 0.05,0 0.06,0 0.05,0 0.06,0 0.12,0 0.06,0.01 0.05,0 0.06,0.01 0.06,0 0.06,0.01 0.06,0.01 0.05,0.02 0.06,0.01 0.06,0.02 0.05,0.01 0.05,0.02 0.05,0.03 0.05,0.02 0.04,0.03 0.04,0.04 0.05,0.03 0.03,0.04 0.02,0.02 0.02,0.02 0.01,0.03 0.02,0.02 0.01,0.02 0.02,0.03 0.01,0.03 0.01,0.02 0.01,0.03 0.01,0.03 0.01,0.03 0,0.03 0.01,0.04 0.01,0.03 0,0.04 0,0.03 0.01,0.04 0,0.04 c 0,0.87 -0.81,0.87 -1.4,0.87 l -20.78,0 c -0.56,0 -1.39,0 -1.39,-0.84 0,-0.87 0.8,-0.87 1.39,-0.87 z"
         inkscape:connector-curvature="0"
         style="fill:#000000;stroke-width:0" /><path
         id="path4716"
         d="m 720.68,421.18 0,0.04 0,0.04 0,0.04 0,0.04 0,0.04 0,0.04 0,0.03 0,0.04 -0.01,0.03 0,0.03 0,0.04 0,0.03 -0.01,0.02 0,0.03 0,0.03 -0.01,0.03 0,0.02 0,0.02 -0.02,0.05 -0.01,0.04 -0.01,0.04 -0.02,0.03 -0.02,0.03 -0.02,0.03 -0.03,0.03 -0.02,0.02 -0.03,0.02 -0.04,0.02 -0.03,0.01 -0.04,0.01 -0.05,0.02 -0.05,0 -0.02,0.01 -0.03,0 -0.03,0.01 -0.02,0 -0.03,0 -0.03,0 -0.04,0 -0.03,0.01 -0.03,0 -0.04,0 -0.03,0 -0.04,0 -0.04,0 -0.04,0 -0.04,0 -0.04,0 -0.05,0 -0.04,0 c -2.24,-2.19 -5.41,-2.23 -6.84,-2.23 l 0,-1.25 c 0.84,0 3.14,0 5.05,0.97 l 0,-17.78 c 0,-1.15 0,-1.61 -3.48,-1.61 l -1.33,0 0,-1.25 12.45,0 0,1.25 -1.32,0 c -3.49,0 -3.49,0.46 -3.49,1.61 z"
         inkscape:connector-curvature="0"
         style="fill:#000000;stroke-width:0" /><path
         id="path4718"
         d="m 763.38,417.46 13.89,0 c 0.7,0 1.64,0 1.64,0.99 0,1 -0.94,1 -1.64,1 l -13.89,0 0,13.95 c 0,0.69 0,1.64 -1,1.64 -1,0 -1,-0.95 -1,-1.64 l 0,-13.95 -13.95,0 c -0.7,0 -1.64,0 -1.64,-1 0,-0.99 0.94,-0.99 1.64,-0.99 l 13.95,0 0,-13.95 c 0,-0.7 0,-1.64 1,-1.64 1,0 1,0.94 1,1.64 z"
         inkscape:connector-curvature="0"
         style="fill:#000000;stroke-width:0" /><path
         id="path4720"
         d="m 819.7,423.68 0.01,0.08 0.02,0.07 0.02,0.08 0.02,0.07 0.02,0.08 0.03,0.09 0.04,0.16 0.04,0.17 0.04,0.18 0.04,0.16 0.04,0.17 0.02,0.08 0.02,0.08 0.01,0.08 0.02,0.07 0.01,0.08 0.02,0.07 0.01,0.06 0.02,0.07 0.01,0.05 0.01,0.06 0,0.05 0.01,0.05 0.01,0.04 0,0.04 0,0.03 0.01,0.03 c 0,1.09 -0.8,2.19 -2.35,2.19 -0.8,0 -2.63,-0.4 -3.28,-2.64 -0.85,-3.14 -1.75,-6.78 -2.55,-10.16 -0.4,-1.75 -0.4,-2.39 -0.4,-3.04 0,-1.35 0.16,-1.3 0.16,-1.6 0,-0.25 -1.35,-3.29 -4.24,-3.29 -4.03,0 -4.03,3.04 -4.03,4.09 0,2.09 0.59,4.43 2.59,9.51 0.4,1 0.89,2.19 0.89,3.04 0,2.89 -2.89,4.49 -5.63,4.49 -5.27,0 -7.77,-6.78 -7.77,-7.77 0,-0.7 0.75,-0.7 1.2,-0.7 0.6,0 0.94,0 1.14,0.65 1.65,5.52 4.34,6.02 5.14,6.02 0.29,0 0.84,0 0.84,-1.04 0,-1.15 -0.5,-2.39 -1.09,-3.94 -1.94,-4.83 -2.69,-7.27 -2.69,-9.36 0,-5.48 4.78,-6.78 9.06,-6.78 1,0 3.29,0 5.58,2.79 1.35,-1.69 3.59,-2.79 7.47,-2.79 2.99,0 5.63,1.45 7.92,5.83 2,3.73 3.54,10.01 3.54,12.6 0,4.54 -3.34,4.54 -3.39,4.54 -1.89,0 -3.78,-2 -3.78,-3.79 0,-1.4 1.04,-1.99 1.49,-2.24 1.95,-1.15 2.49,-2.04 2.49,-3.14 0,-0.75 -1.24,-5.48 -2.79,-8.22 -1.39,-2.49 -2.99,-3.79 -5.13,-3.79 -3.58,0 -3.63,2.94 -3.63,3.94 0,1.29 0.2,2.04 0.79,4.53 0.35,1.45 0.95,3.89 1.25,5.03 z"
         inkscape:connector-curvature="0"
         style="fill:#000000;stroke-width:0" /><path
         id="path4722"
         d="m 842.58,412.77 3.55,0 c 0.67,0 1.12,0 1.12,0.77 0,0.49 -0.45,0.49 -1.05,0.49 l -3.31,0 1.29,5.16 c 0.04,0.17 0.1,0.35 0.1,0.49 0,0.62 -0.48,1.11 -1.18,1.11 -0.87,0 -1.39,-0.59 -1.64,-1.5 -0.24,-0.87 0.21,0.81 -1.32,-5.26 l -3.56,0 c -0.66,0 -1.11,0 -1.11,-0.77 0,-0.49 0.41,-0.49 1.04,-0.49 l 3.31,0 -2.05,-8.23 c -0.21,-0.87 -0.53,-2.12 -0.53,-2.58 0,-2.05 1.74,-3.31 3.73,-3.31 3.87,0 6.07,4.88 6.07,5.33 0,0.46 -0.45,0.46 -0.56,0.46 -0.41,0 -0.45,-0.07 -0.73,-0.66 -0.98,-2.2 -2.75,-4.15 -4.67,-4.15 -0.73,0 -1.22,0.45 -1.22,1.71 0,0.34 0.14,1.08 0.21,1.43 z"
         inkscape:connector-curvature="0"
         style="fill:#000000;stroke-width:0" /></g>    <path
       transform="matrix(0.52187074,0,0,0.52187074,105.39647,58.619173)"
       inkscape:connector-curvature="0"
       id="path4856"
       d=""
       style="color:#000000;clip-rule:nonzero;display:inline;overflow:visible;visibility:visible;opacity:1;isolation:auto;mix-blend-mode:normal;color-interpolation:sRGB;color-interpolation-filters:linearRGB;solid-color:#000000;solid-opacity:1;fill:#800000;fill-opacity:1;fill-rule:evenodd;stroke:#000000;stroke-width:2.79272723;stroke-linecap:butt;stroke-linejoin:miter;stroke-miterlimit:4;stroke-dasharray:none;stroke-dashoffset:0;stroke-opacity:1;color-rendering:auto;image-rendering:auto;shape-rendering:auto;text-rendering:auto;enable-background:accumulate" />
  </g>
  <text
     xml:space="preserve"
     style="font-style:normal;font-weight:normal;font-size:29.41901207px;line-height:125%;font-family:sans-serif;letter-spacing:0px;word-spacing:0px;fill:#000000;fill-opacity:1;stroke:none;stroke-width:1px;stroke-linecap:butt;stroke-linejoin:miter;stroke-opacity:1"
     x="112.5113"
     y="101.28699"
     id="text6400-7"
     sodipodi:linespacing="125%"><tspan
       sodipodi:role="line"
       id="tspan6402-5"
       x="112.5113"
       y="101.28699">process model</tspan></text>
  <g
     transform="matrix(1.5998819,0,0,1.5998819,341.01991,101.77767)"
     id="g4792">
    <g
       style="font-style:normal;font-variant:normal;font-weight:normal;font-stretch:normal;letter-spacing:normal;word-spacing:normal;text-anchor:start;fill:none;fill-opacity:1;fill-rule:evenodd;stroke:#000000;stroke-linecap:butt;stroke-linejoin:miter;stroke-miterlimit:10.43299961;stroke-dasharray:none;stroke-dashoffset:0;stroke-opacity:1"
       id="g4794"
       transform="matrix(0.42857143,0,0,-0.42857143,-75,300)"
       xml:space="preserve"
       stroke-miterlimit="10.433"
       font-style="normal"
       font-variant="normal"
       font-weight="normal"
       font-stretch="normal"
       font-size-adjust="none"
       letter-spacing="normal"
       word-spacing="normal"><path
         style="fill:#000000;stroke-width:0"
         inkscape:connector-curvature="0"
         d="m 484.74,424.78 0.01,0.04 0.01,0.04 0.02,0.04 0.01,0.04 0.01,0.04 0.01,0.03 0.01,0.04 0,0.03 0.01,0.03 0.01,0.04 0.01,0.03 0.01,0.03 0.01,0.03 0,0.02 0.01,0.03 0.01,0.03 0,0.02 0.01,0.03 0.01,0.04 0.01,0.05 0.01,0.04 0.01,0.04 0.01,0.03 0,0.03 0.01,0.03 0.01,0.03 0,0.03 0.01,0.02 0,0.02 0,0.03 0,0.01 0.01,0.02 0,0.02 0,0.02 0,0.01 0,0.03 0,0.03 0,0.03 c 0,1.09 -0.79,2.19 -2.34,2.19 -2.59,0 -3.19,-2.34 -3.54,-3.69 l -1.29,-5.18 c -0.6,-2.39 -1.55,-6.23 -2.09,-8.27 -0.25,-1.09 -1.8,-2.29 -1.94,-2.39 -0.56,-0.35 -1.75,-1.2 -3.4,-1.2 -2.93,0 -2.98,2.5 -2.98,3.64 0,3.04 1.54,6.93 2.94,10.51 0.49,1.3 0.64,1.64 0.64,2.49 0,2.89 -2.88,4.49 -5.63,4.49 -5.27,0 -7.77,-6.78 -7.77,-7.77 0,-0.7 0.75,-0.7 1.2,-0.7 0.6,0 0.94,0 1.14,0.65 1.65,5.52 4.39,6.02 5.14,6.02 0.34,0 0.84,0 0.84,-1.04 0,-1.15 -0.55,-2.45 -0.84,-3.24 -1.95,-4.98 -2.99,-7.82 -2.99,-10.36 0,-5.68 4.98,-6.48 7.92,-6.48 1.24,0 2.94,0.2 4.78,1.5 -1.39,-6.13 -5.13,-9.37 -8.57,-9.37 -0.65,0 -2.04,0.1 -3.04,0.7 1.6,0.64 2.39,1.99 2.39,3.34 0,1.79 -1.44,2.29 -2.44,2.29 -1.84,0 -3.58,-1.6 -3.58,-3.79 0,-2.54 2.64,-4.33 6.67,-4.33 5.73,0 12.31,3.83 13.85,10.01 z"
         id="path4796" /><path
         style="fill:#000000;stroke-width:0"
         inkscape:connector-curvature="0"
         d="m 493.58,412.77 3.55,0 c 0.67,0 1.12,0 1.12,0.77 0,0.49 -0.45,0.49 -1.05,0.49 l -3.31,0 1.29,5.16 c 0.03,0.17 0.11,0.35 0.11,0.49 0,0.62 -0.49,1.11 -1.19,1.11 -0.87,0 -1.39,-0.59 -1.64,-1.5 -0.24,-0.87 0.21,0.81 -1.32,-5.26 l -3.56,0 c -0.66,0 -1.12,0 -1.12,-0.77 0,-0.49 0.42,-0.49 1.05,-0.49 l 3.31,0 -2.05,-8.23 c -0.21,-0.87 -0.53,-2.12 -0.53,-2.58 0,-2.05 1.74,-3.31 3.73,-3.31 3.87,0 6.07,4.88 6.07,5.33 0,0.46 -0.45,0.46 -0.56,0.46 -0.41,0 -0.45,-0.07 -0.73,-0.66 -0.98,-2.2 -2.75,-4.15 -4.67,-4.15 -0.73,0 -1.22,0.45 -1.22,1.71 0,0.34 0.14,1.08 0.21,1.43 z"
         id="path4798" /><path
         style="fill:#000000;stroke-width:0"
         inkscape:connector-curvature="0"
         d="m 550.22,422.29 0.14,0 0.15,0 0.15,0.01 0.07,0 0.07,0 0.07,0.01 0.08,0.01 0.07,0.01 0.07,0.01 0.06,0.02 0.07,0.01 0.07,0.02 0.06,0.02 0.06,0.03 0.06,0.03 0.05,0.03 0.06,0.03 0.05,0.04 0.04,0.04 0.05,0.05 0.03,0.05 0.02,0.03 0.02,0.02 0.02,0.03 0.01,0.03 0.02,0.03 0.01,0.04 0.01,0.03 0.01,0.04 0.01,0.03 0.01,0.04 0.01,0.04 0,0.04 0.01,0.04 0,0.04 0,0.05 0,0.05 c 0,0.99 -0.94,0.99 -1.64,0.99 l -29.84,0 c -0.7,0 -1.64,0 -1.64,-0.99 0,-1 0.94,-1 1.69,-1 z"
         id="path4800" /><path
         style="fill:#000000;stroke-width:0"
         inkscape:connector-curvature="0"
         d="m 550.27,412.62 0.13,0.01 0.14,0 0.14,0 0.07,0.01 0.07,0 0.07,0.01 0.07,0.01 0.07,0.01 0.07,0.01 0.06,0.01 0.07,0.02 0.06,0.02 0.06,0.02 0.06,0.02 0.06,0.03 0.06,0.03 0.05,0.04 0.05,0.04 0.04,0.04 0.05,0.04 0.02,0.03 0.02,0.03 0.01,0.02 0.02,0.03 0.02,0.03 0.01,0.03 0.02,0.03 0.01,0.03 0.01,0.04 0.01,0.03 0.01,0.04 0.01,0.04 0.01,0.04 0,0.04 0.01,0.04 0,0.04 0,0.05 0,0.04 c 0,1 -0.94,1 -1.69,1 l -29.74,0 c -0.75,0 -1.69,0 -1.69,-1 0,-1 0.94,-1 1.64,-1 z"
         id="path4802" /><path
         style="fill:#000000;stroke-width:0"
         inkscape:connector-curvature="0"
         d="m 614.38,437.63 0.1,0.02 0.11,0.02 0.11,0.01 0.12,0.02 0.11,0.01 0.12,0.02 0.24,0.02 0.25,0.02 0.25,0.01 0.25,0.02 0.24,0.01 0.24,0.01 0.11,0 0.11,0 0.11,0 0.11,0.01 0.1,0 0.1,0 0.09,0 0.09,0 0.09,0 0.08,0 0.07,0 0.07,0 0.06,0 0.06,0 c 0.64,0 1.64,0 1.84,0.15 0.5,0.35 0.55,1.25 0.55,1.29 0,0.65 -0.5,0.9 -1.1,0.9 -1.24,0 -2.54,-0.1 -3.78,-0.1 l -7.58,0 c -1.29,0 -2.63,0.1 -3.93,0.1 -0.45,0 -1.45,0 -1.45,-1.44 0,-0.9 0.65,-0.9 2.1,-0.9 1.05,0 1.99,-0.05 3.04,-0.1 l -3.19,-12.8 -16.24,0 3.14,12.7 c 1.09,0.2 2.84,0.2 3.38,0.2 0.65,0 1.65,0 1.85,0.15 0.5,0.35 0.55,1.25 0.55,1.29 0,0.65 -0.5,0.9 -1.1,0.9 -1.25,0 -2.54,-0.1 -3.79,-0.1 l -7.57,0 c -1.29,0 -2.64,0.1 -3.93,0.1 -0.45,0 -1.45,0 -1.45,-1.44 0,-0.9 0.65,-0.9 2.09,-0.9 1.05,0 2,-0.05 3.04,-0.1 l -7.12,-28.39 c -0.2,-0.8 -0.25,-0.85 -1.15,-0.95 -0.84,-0.05 -1.84,-0.05 -2.64,-0.05 -1.29,0 -1.39,0 -1.59,-0.1 -0.6,-0.35 -0.6,-1.14 -0.6,-1.34 0,-0.05 0,-0.9 1.1,-0.9 1.24,0 2.54,0.1 3.78,0.1 l 7.63,0 c 1.29,0 2.63,-0.1 3.88,-0.1 0.5,0 0.9,0 1.15,0.35 0.2,0.3 0.3,0.99 0.3,1.1 0,0.89 -0.7,0.89 -2.05,0.89 -1.04,0 -1.99,0.05 -3.03,0.1 l 3.53,14.15 16.24,0 -3.34,-13.25 c -0.2,-0.8 -0.25,-0.85 -1.14,-0.95 -0.85,-0.05 -1.85,-0.05 -2.64,-0.05 -1.3,0 -1.4,0 -1.6,-0.1 -0.6,-0.35 -0.6,-1.14 -0.6,-1.34 0,-0.05 0,-0.9 1.1,-0.9 1.25,0 2.54,0.1 3.79,0.1 l 7.62,0 c 1.29,0 2.64,-0.1 3.88,-0.1 0.5,0 0.9,0 1.15,0.35 0.2,0.3 0.3,0.99 0.3,1.1 0,0.89 -0.7,0.89 -2.04,0.89 -1.05,0 -2,0.05 -3.05,0.1 z"
         id="path4804" /><path
         style="fill:#000000;stroke-width:0"
         inkscape:connector-curvature="0"
         d="m 626.58,412.77 3.55,0 c 0.67,0 1.12,0 1.12,0.77 0,0.49 -0.45,0.49 -1.05,0.49 l -3.31,0 1.29,5.16 c 0.04,0.17 0.1,0.35 0.1,0.49 0,0.62 -0.48,1.11 -1.18,1.11 -0.87,0 -1.39,-0.59 -1.64,-1.5 -0.24,-0.87 0.21,0.81 -1.32,-5.26 l -3.56,0 c -0.66,0 -1.11,0 -1.11,-0.77 0,-0.49 0.41,-0.49 1.04,-0.49 l 3.31,0 -2.05,-8.23 c -0.21,-0.87 -0.53,-2.12 -0.53,-2.58 0,-2.05 1.74,-3.31 3.73,-3.31 3.87,0 6.07,4.88 6.07,5.33 0,0.46 -0.45,0.46 -0.56,0.46 -0.41,0 -0.45,-0.07 -0.73,-0.66 -0.98,-2.2 -2.75,-4.15 -4.67,-4.15 -0.73,0 -1.22,0.45 -1.22,1.71 0,0.34 0.14,1.08 0.21,1.43 z"
         id="path4806" /><path
         style="fill:#000000;stroke-width:0"
         inkscape:connector-curvature="0"
         d="m 661.7,425.98 -0.17,-0.05 -0.16,-0.06 -0.15,-0.06 -0.15,-0.07 -0.15,-0.08 -0.13,-0.08 -0.14,-0.09 -0.13,-0.09 -0.12,-0.09 -0.12,-0.1 -0.11,-0.1 -0.11,-0.11 -0.1,-0.11 -0.1,-0.12 -0.09,-0.11 -0.09,-0.12 -0.08,-0.12 -0.07,-0.13 -0.08,-0.12 -0.06,-0.13 -0.06,-0.12 -0.06,-0.13 -0.05,-0.13 -0.04,-0.13 -0.04,-0.13 -0.03,-0.12 -0.03,-0.13 -0.03,-0.13 -0.01,-0.12 -0.02,-0.12 -0.01,-0.12 0,-0.12 c 0,-1.1 0.84,-2.29 2.49,-2.29 1.74,0 3.59,1.44 3.59,3.88 0,2.64 -2.64,4.39 -5.68,4.39 -2.84,0 -4.68,-2.14 -5.33,-3.04 -1.25,2.09 -4.04,3.04 -6.88,3.04 -6.27,0 -9.66,-6.13 -9.66,-7.77 0,-0.7 0.75,-0.7 1.19,-0.7 0.6,0 0.95,0 1.15,0.65 1.45,4.53 5.03,6.02 7.08,6.02 1.89,0 2.79,-0.9 2.79,-2.49 0,-0.94 -0.7,-3.68 -1.15,-5.48 l -1.69,-6.82 c -0.75,-3.04 -2.55,-4.54 -4.24,-4.54 -0.25,0 -1.39,0 -2.39,0.75 1.79,0.5 2.69,2.19 2.69,3.44 0,1.1 -0.85,2.29 -2.49,2.29 -1.75,0 -3.58,-1.44 -3.58,-3.89 0,-2.64 2.63,-4.38 5.67,-4.38 2.84,0 4.68,2.14 5.33,3.04 1.25,-2.09 4.04,-3.04 6.88,-3.04 6.27,0 9.66,6.13 9.66,7.77 0,0.7 -0.75,0.7 -1.2,0.7 -0.59,0 -0.94,0 -1.14,-0.65 -1.45,-4.53 -5.03,-6.03 -7.08,-6.03 -1.89,0 -2.79,0.9 -2.79,2.5 0,1.04 0.65,3.68 1.1,5.52 0.35,1.3 1.49,5.98 1.74,6.78 0.75,2.99 2.5,4.53 4.24,4.53 0.25,0 1.39,0 2.39,-0.74 z"
         id="path4808" /><path
         style="fill:#000000;stroke-width:0"
         inkscape:connector-curvature="0"
         d="m 676.58,412.77 3.55,0 c 0.67,0 1.12,0 1.12,0.77 0,0.49 -0.45,0.49 -1.05,0.49 l -3.31,0 1.29,5.16 c 0.04,0.17 0.1,0.35 0.1,0.49 0,0.62 -0.48,1.11 -1.18,1.11 -0.87,0 -1.39,-0.59 -1.64,-1.5 -0.24,-0.87 0.21,0.81 -1.32,-5.26 l -3.56,0 c -0.66,0 -1.11,0 -1.11,-0.77 0,-0.49 0.41,-0.49 1.04,-0.49 l 3.31,0 -2.05,-8.23 c -0.21,-0.87 -0.53,-2.12 -0.53,-2.58 0,-2.05 1.74,-3.31 3.73,-3.31 3.87,0 6.07,4.88 6.07,5.33 0,0.46 -0.45,0.46 -0.56,0.46 -0.41,0 -0.45,-0.07 -0.73,-0.66 -0.98,-2.2 -2.75,-4.15 -4.67,-4.15 -0.73,0 -1.22,0.45 -1.22,1.71 0,0.34 0.14,1.08 0.21,1.43 z"
         id="path4810" /><path
         style="fill:#000000;stroke-width:0"
         inkscape:connector-curvature="0"
         d="m 717.38,417.46 13.89,0 c 0.7,0 1.64,0 1.64,0.99 0,1 -0.94,1 -1.64,1 l -13.89,0 0,13.95 c 0,0.69 0,1.64 -1,1.64 -1,0 -1,-0.95 -1,-1.64 l 0,-13.95 -13.95,0 c -0.7,0 -1.64,0 -1.64,-1 0,-0.99 0.94,-0.99 1.64,-0.99 l 13.95,0 0,-13.95 c 0,-0.7 0,-1.64 1,-1.64 1,0 1,0.94 1,1.64 z"
         id="path4812" /><path
         style="fill:#000000;stroke-width:0"
         inkscape:connector-curvature="0"
         d="m 773.95,424.03 0,0.21 -0.01,0.2 -0.01,0.2 -0.02,0.19 -0.02,0.18 -0.02,0.18 -0.03,0.17 -0.03,0.17 -0.04,0.16 -0.04,0.15 -0.04,0.15 -0.05,0.14 -0.05,0.14 -0.05,0.13 -0.06,0.13 -0.05,0.12 -0.06,0.12 -0.07,0.11 -0.06,0.11 -0.07,0.1 -0.06,0.1 -0.07,0.09 -0.08,0.09 -0.07,0.09 -0.07,0.08 -0.08,0.08 -0.15,0.14 -0.16,0.13 -0.16,0.11 -0.15,0.1 -0.16,0.09 -0.15,0.07 -0.15,0.07 -0.15,0.05 -0.14,0.05 -0.13,0.04 -0.13,0.03 -0.11,0.02 -0.11,0.02 -0.09,0.01 -0.08,0.01 -0.06,0 -0.05,0 -0.02,0.01 -0.01,0 -0.01,0 -0.01,0 c -1.99,0 -3.78,-2.1 -3.78,-3.79 0,-1.4 1.04,-1.99 1.49,-2.24 2.09,-1.25 2.49,-2.15 2.49,-3.14 0,-1.1 -2.89,-12.01 -8.72,-12.01 -3.58,0 -3.58,2.99 -3.58,3.89 0,2.89 1.39,6.52 2.99,10.51 0.39,1 0.54,1.44 0.54,2.24 0,2.89 -2.89,4.49 -5.63,4.49 -5.27,0 -7.77,-6.78 -7.77,-7.77 0,-0.7 0.75,-0.7 1.2,-0.7 0.6,0 0.94,0 1.14,0.65 1.6,5.37 4.24,6.02 5.14,6.02 0.34,0 0.84,0 0.84,-1.04 0,-1.15 -0.59,-2.59 -0.75,-2.99 -2.28,-5.78 -3.03,-8.02 -3.03,-10.41 0,-5.28 4.28,-6.68 8.62,-6.68 8.56,0 12.2,14.15 12.2,18.43 z"
         id="path4814" /><path
         style="fill:#000000;stroke-width:0"
         inkscape:connector-curvature="0"
         d="m 783.58,412.77 3.55,0 c 0.67,0 1.12,0 1.12,0.77 0,0.49 -0.45,0.49 -1.05,0.49 l -3.31,0 1.29,5.16 c 0.04,0.17 0.1,0.35 0.1,0.49 0,0.62 -0.48,1.11 -1.18,1.11 -0.87,0 -1.39,-0.59 -1.64,-1.5 -0.24,-0.87 0.21,0.81 -1.32,-5.26 l -3.56,0 c -0.66,0 -1.11,0 -1.11,-0.77 0,-0.49 0.41,-0.49 1.04,-0.49 l 3.31,0 -2.05,-8.23 c -0.21,-0.87 -0.53,-2.12 -0.53,-2.58 0,-2.05 1.74,-3.31 3.73,-3.31 3.87,0 6.07,4.88 6.07,5.33 0,0.46 -0.45,0.46 -0.56,0.46 -0.41,0 -0.45,-0.07 -0.73,-0.66 -0.98,-2.2 -2.75,-4.15 -4.67,-4.15 -0.73,0 -1.22,0.45 -1.22,1.71 0,0.34 0.14,1.08 0.21,1.43 z"
         id="path4816" /></g>  </g>
  <text
     xml:space="preserve"
     style="font-style:normal;font-weight:normal;font-size:29.41901207px;line-height:125%;font-family:sans-serif;letter-spacing:0px;word-spacing:0px;fill:#000000;fill-opacity:1;stroke:none;stroke-width:1px;stroke-linecap:butt;stroke-linejoin:miter;stroke-opacity:1"
     x="8.4082384"
     y="306.17184"
     id="text6400"
     sodipodi:linespacing="125%"><tspan
       sodipodi:role="line"
       id="tspan6402"
       x="8.4082384"
       y="306.17184">noisy, incomplete observations</tspan></text>
  <g
     id="g5993"
     transform="matrix(1.4993527,0,0,1.4993527,346.66146,303.22556)">
    <g
       word-spacing="normal"
       letter-spacing="normal"
       font-size-adjust="none"
       font-stretch="normal"
       font-weight="normal"
       font-variant="normal"
       font-style="normal"
       stroke-miterlimit="10.433"
       xml:space="preserve"
       transform="matrix(0.42857143,0,0,-0.42857143,-75,300)"
       id="g5995"
       style="font-style:normal;font-variant:normal;font-weight:normal;font-stretch:normal;letter-spacing:normal;word-spacing:normal;text-anchor:start;fill:none;fill-opacity:1;fill-rule:evenodd;stroke:#000000;stroke-linecap:butt;stroke-linejoin:miter;stroke-miterlimit:10.43299961;stroke-dasharray:none;stroke-dashoffset:0;stroke-opacity:1"><path
         id="path5997"
         d="m 483.7,423.68 0.01,0.08 0.02,0.07 0.02,0.08 0.02,0.07 0.02,0.08 0.03,0.09 0.04,0.16 0.04,0.17 0.04,0.18 0.04,0.16 0.04,0.17 0.02,0.08 0.02,0.08 0.01,0.08 0.02,0.07 0.01,0.08 0.02,0.07 0.01,0.06 0.02,0.07 0.01,0.05 0.01,0.06 0,0.05 0.01,0.05 0.01,0.04 0,0.04 0,0.03 0.01,0.03 c 0,1.09 -0.8,2.19 -2.35,2.19 -0.8,0 -2.64,-0.4 -3.28,-2.64 -0.85,-3.14 -1.75,-6.78 -2.55,-10.16 -0.4,-1.75 -0.4,-2.39 -0.4,-3.04 0,-1.35 0.16,-1.3 0.16,-1.6 0,-0.25 -1.35,-3.29 -4.24,-3.29 -4.03,0 -4.03,3.04 -4.03,4.09 0,2.09 0.6,4.43 2.59,9.51 0.4,1 0.89,2.19 0.89,3.04 0,2.89 -2.88,4.49 -5.63,4.49 -5.27,0 -7.77,-6.78 -7.77,-7.77 0,-0.7 0.75,-0.7 1.2,-0.7 0.6,0 0.94,0 1.14,0.65 1.65,5.52 4.34,6.02 5.14,6.02 0.29,0 0.84,0 0.84,-1.04 0,-1.15 -0.5,-2.39 -1.09,-3.94 -1.94,-4.83 -2.69,-7.27 -2.69,-9.36 0,-5.48 4.78,-6.78 9.06,-6.78 1,0 3.29,0 5.58,2.79 1.35,-1.69 3.59,-2.79 7.47,-2.79 2.99,0 5.63,1.45 7.92,5.83 2,3.73 3.54,10.01 3.54,12.6 0,4.54 -3.34,4.54 -3.39,4.54 -1.89,0 -3.78,-2 -3.78,-3.79 0,-1.4 1.04,-1.99 1.49,-2.24 1.94,-1.15 2.49,-2.04 2.49,-3.14 0,-0.75 -1.24,-5.48 -2.79,-8.22 -1.39,-2.49 -2.99,-3.79 -5.13,-3.79 -3.58,0 -3.63,2.94 -3.63,3.94 0,1.29 0.2,2.04 0.79,4.53 0.35,1.45 0.95,3.89 1.25,5.03 z"
         inkscape:connector-curvature="0"
         style="fill:#000000;stroke-width:0" /><path
         id="path5999"
         d="m 505.58,412.77 3.55,0 c 0.67,0 1.12,0 1.12,0.77 0,0.49 -0.45,0.49 -1.05,0.49 l -3.31,0 1.29,5.16 c 0.03,0.17 0.11,0.35 0.11,0.49 0,0.62 -0.49,1.11 -1.19,1.11 -0.87,0 -1.39,-0.59 -1.64,-1.5 -0.24,-0.87 0.21,0.81 -1.32,-5.26 l -3.56,0 c -0.66,0 -1.12,0 -1.12,-0.77 0,-0.49 0.42,-0.49 1.05,-0.49 l 3.31,0 -2.05,-8.23 c -0.21,-0.87 -0.53,-2.12 -0.53,-2.58 0,-2.05 1.74,-3.31 3.73,-3.31 3.87,0 6.07,4.88 6.07,5.33 0,0.46 -0.45,0.46 -0.56,0.46 -0.41,0 -0.45,-0.07 -0.73,-0.66 -0.98,-2.2 -2.75,-4.15 -4.67,-4.15 -0.73,0 -1.22,0.45 -1.22,1.71 0,0.34 0.14,1.08 0.21,1.43 z"
         inkscape:connector-curvature="0"
         style="fill:#000000;stroke-width:0" /><path
         id="path6001"
         d="m 563.97,422.64 -0.01,0.1 0,0.1 0,0.09 -0.01,0.09 -0.01,0.09 -0.01,0.08 -0.01,0.08 -0.01,0.08 -0.01,0.07 -0.02,0.07 -0.01,0.07 -0.02,0.06 -0.02,0.06 -0.02,0.06 -0.02,0.05 -0.02,0.05 -0.03,0.05 -0.02,0.05 -0.03,0.04 -0.03,0.04 -0.02,0.03 -0.03,0.03 -0.03,0.03 -0.03,0.03 -0.04,0.02 -0.03,0.02 -0.03,0.01 -0.04,0.02 -0.03,0.01 -0.04,0 -0.03,0.01 -0.04,0 c -0.25,0 -0.65,-0.35 -0.7,-1.29 -0.2,-4.78 -3.49,-7.53 -6.97,-7.53 -3.14,0 -5.53,2.14 -7.98,4.29 -2.53,2.29 -5.12,4.58 -8.51,4.58 -5.43,0 -8.37,-5.48 -8.37,-10.01 0,-1.59 0.65,-1.59 0.7,-1.59 0.54,0 0.69,0.99 0.69,1.14 0.2,5.48 3.94,7.67 6.98,7.67 3.14,0 5.53,-2.14 7.97,-4.28 2.54,-2.29 5.13,-4.59 8.52,-4.59 5.43,0 8.37,5.49 8.37,10.02 z"
         inkscape:connector-curvature="0"
         style="fill:#000000;stroke-width:0" /><path
         id="path6003"
         d="m 596.24,434.59 0.17,-0.5 0.18,-0.52 0.18,-0.56 0.2,-0.59 0.2,-0.63 0.11,-0.32 0.11,-0.34 0.11,-0.34 0.11,-0.36 0.12,-0.36 0.13,-0.38 0.12,-0.38 0.13,-0.4 0.14,-0.4 0.14,-0.42 0.14,-0.43 0.15,-0.44 0.16,-0.45 0.16,-0.46 0.16,-0.48 0.17,-0.49 0.18,-0.5 0.18,-0.51 0.19,-0.53 0.19,-0.54 0.2,-0.55 0.21,-0.57 c 3.13,-8.47 4.53,-11.56 7.57,-16.29 0.7,-1.05 0.75,-1.1 1.19,-1.1 0.7,0 1.75,0.6 2.29,1 0.7,0.65 0.75,0.7 1.3,3.14 2.99,13.1 6.77,26.75 7.77,29.04 0.05,0.1 1.05,1.99 7.17,2.09 1,0.05 1.95,2.69 1.95,3.79 0,0.8 -0.3,0.8 -1,0.8 -4.98,0 -7.22,-2.1 -7.82,-2.74 -1.4,-1.8 -2.59,-5.43 -4.88,-13.75 -1.75,-6.38 -3.34,-12.85 -4.88,-19.28 -2.74,4.13 -4.29,8.07 -6.68,14.5 -2.64,7.07 -4.23,12.25 -5.58,16.73 -0.29,1 -0.35,1.05 -0.79,1.05 -0.11,0 -1.1,0 -2.54,-1.2 -0.5,-0.45 -0.55,-0.89 -0.6,-1.44 -1.4,-13.25 -6.08,-26.35 -7.42,-28.75 -0.4,-0.74 -1,-1.64 -2,-1.64 -0.5,0 -2.44,0.25 -3.73,1.45 -0.25,0.19 -0.35,0.19 -0.4,0.19 -0.8,0 -1.85,-2.48 -1.85,-3.68 0,-1.55 3.04,-2.54 4.44,-2.54 3.19,0 5.73,7.02 6.53,9.31 3.23,9.02 4.78,16.44 5.72,21.77 z"
         inkscape:connector-curvature="0"
         style="fill:#000000;stroke-width:0" /><path
         id="path6005"
         d="m 645.49,394.04 0,0.03 0,0.03 -0.01,0.01 0,0.02 0,0.01 -0.01,0.02 0,0.02 -0.01,0.01 -0.01,0.02 -0.01,0.02 -0.01,0.03 -0.01,0.02 -0.02,0.02 -0.02,0.03 -0.02,0.03 -0.02,0.03 -0.03,0.03 -0.03,0.04 -0.01,0.02 -0.02,0.02 -0.02,0.02 -0.02,0.02 -0.02,0.02 -0.02,0.03 -0.02,0.02 -0.02,0.02 -0.02,0.03 -0.03,0.02 -0.02,0.03 -0.03,0.03 -0.02,0.03 -0.03,0.03 -0.03,0.03 -0.03,0.03 -0.03,0.03 -0.03,0.03 -0.04,0.04 -0.03,0.03 -0.04,0.04 -0.03,0.03 -0.04,0.04 -0.04,0.04 c -6.23,6.28 -7.82,15.69 -7.82,23.31 0,8.67 1.9,17.34 8.02,23.57 0.65,0.59 0.65,0.69 0.65,0.84 0,0.35 -0.2,0.5 -0.5,0.5 -0.5,0 -4.98,-3.39 -7.92,-9.72 -2.54,-5.47 -3.14,-11 -3.14,-15.19 0,-3.88 0.55,-9.91 3.29,-15.54 2.99,-6.12 7.27,-9.36 7.77,-9.36 0.3,0 0.5,0.15 0.5,0.49 z"
         inkscape:connector-curvature="0"
         style="fill:#000000;stroke-width:0" /><path
         id="path6007"
         d="m 674.35,421.89 0,0.47 0,0.52 -0.01,0.54 -0.01,0.58 -0.03,0.6 -0.03,0.63 -0.05,0.65 -0.06,0.66 -0.08,0.68 -0.11,0.69 -0.12,0.7 -0.15,0.7 -0.17,0.7 -0.2,0.7 -0.24,0.68 -0.26,0.68 -0.31,0.67 -0.33,0.64 -0.38,0.63 -0.42,0.6 -0.47,0.57 -0.51,0.54 -0.27,0.26 -0.29,0.25 -0.29,0.23 -0.32,0.23 -0.32,0.22 -0.34,0.21 -0.35,0.19 -0.36,0.19 -0.38,0.17 -0.4,0.16 -0.4,0.15 -0.43,0.13 -0.44,0.12 -0.45,0.1 -0.47,0.09 -0.49,0.07 -0.5,0.06 -0.52,0.04 -0.54,0.03 -0.55,0.01 0,-1.79 c 1.84,0 3.88,-0.95 4.83,-3.14 0.85,-1.85 0.85,-7.13 0.85,-11.21 0,-2.79 0,-7.33 -0.36,-9.92 -0.69,-4.63 -3.83,-5.32 -5.32,-5.32 l 0,0 c -1.8,0 -4.58,1.09 -5.23,4.73 -0.45,2.59 -0.45,7.77 -0.45,10.51 0,3.58 0,6.82 0.4,9.41 0.59,4.44 4.08,4.94 5.28,4.94 l 0,1.79 c -12.01,0 -12.06,-11.86 -12.06,-16.74 0,-4.93 0.05,-16.44 12.06,-16.44 11.95,0 12.05,11.46 12.05,16.44 z"
         inkscape:connector-curvature="0"
         style="fill:#000000;stroke-width:0" /><path
         id="path6009"
         d="m 687.11,406.05 0,0.31 -0.01,0.29 -0.02,0.29 -0.02,0.28 -0.04,0.27 -0.03,0.26 -0.05,0.26 -0.05,0.24 -0.06,0.24 -0.07,0.23 -0.07,0.22 -0.07,0.21 -0.09,0.2 -0.09,0.19 -0.09,0.18 -0.1,0.18 -0.11,0.16 -0.11,0.15 -0.12,0.15 -0.12,0.13 -0.13,0.13 -0.13,0.11 -0.14,0.1 -0.15,0.1 -0.15,0.08 -0.15,0.07 -0.16,0.06 -0.16,0.05 -0.17,0.04 -0.17,0.03 -0.17,0.02 -0.18,0 c -1.65,0 -2.65,-1.24 -2.65,-2.64 0,-1.34 1,-2.64 2.65,-2.64 0.59,0 1.24,0.2 1.74,0.65 0.15,0.1 0.2,0.15 0.25,0.15 0.05,0 0.1,-0.05 0.1,-0.75 0,-3.69 -1.75,-6.67 -3.39,-8.32 -0.55,-0.55 -0.55,-0.65 -0.55,-0.8 0,-0.34 0.25,-0.54 0.5,-0.54 0.55,0 4.53,3.83 4.53,9.66 z"
         inkscape:connector-curvature="0"
         style="fill:#000000;stroke-width:0" /><path
         id="path6011"
         d="m 721.12,403.16 0,-0.24 0,-0.26 0.01,-0.26 0.01,-0.26 0.02,-0.28 0.02,-0.27 0.03,-0.28 0.03,-0.29 0.04,-0.28 0.05,-0.29 0.06,-0.28 0.07,-0.28 0.08,-0.28 0.09,-0.28 0.11,-0.27 0.11,-0.26 0.13,-0.26 0.14,-0.25 0.16,-0.24 0.17,-0.22 0.19,-0.22 0.2,-0.2 0.22,-0.19 0.24,-0.17 0.13,-0.09 0.13,-0.07 0.14,-0.07 0.14,-0.07 0.14,-0.06 0.16,-0.06 0.15,-0.06 0.16,-0.04 0.17,-0.05 0.17,-0.04 0.18,-0.03 0.19,-0.03 0.19,-0.02 0.19,-0.01 0.2,-0.01 0.21,0 c 6.17,0 9.02,8.61 9.02,9.66 0,0.5 -0.4,0.9 -0.9,0.9 -0.6,0 -0.8,-0.5 -0.9,-0.75 -0.94,-2.49 -4.63,-2.49 -5.13,-2.49 -1.09,0 -2.39,0 -3.63,2.89 12.05,4.43 15.19,15.94 15.19,21.62 0,8.47 -5.88,12.85 -14.5,12.85 l -0.5,-1.99 c 4.29,0 8.37,-2.39 8.37,-8.97 0,-0.35 -0.65,-15.59 -9.56,-20.92 -1,2.44 -2.34,4.58 -5.38,4.58 -2.74,0 -5.73,-2.14 -5.73,-4.93 l 1.79,0 c 0,1.59 1.94,3.14 3.99,3.14 1.3,0 2.89,-0.35 2.99,-3.99 l 0,0 c -0.35,-0.15 -2.34,-0.8 -4.39,-0.8 -0.9,0 -2.59,0 -2.59,1.65 l -1.79,0 c 0,-0.4 0,-0.45 0.05,-0.65 l 0,0 c -3.09,1.5 -4.08,4.54 -4.08,7.87 0,2.84 1.39,11.91 5.68,17.49 3.18,4.08 7.42,5.53 10.65,5.53 l 0.5,1.99 c -15.39,0 -23.46,-13.2 -23.46,-23.16 0,-8.72 6.23,-12.71 14.54,-12.71 0.6,0 2.44,0 4.94,0.5 z"
         inkscape:connector-curvature="0"
         style="fill:#000000;stroke-width:0" /><path
         id="path6013"
         d="m 751.58,412.77 3.55,0 c 0.67,0 1.12,0 1.12,0.77 0,0.49 -0.45,0.49 -1.05,0.49 l -3.31,0 1.29,5.16 c 0.04,0.17 0.1,0.35 0.1,0.49 0,0.62 -0.48,1.11 -1.18,1.11 -0.87,0 -1.39,-0.59 -1.64,-1.5 -0.24,-0.87 0.21,0.81 -1.32,-5.26 l -3.56,0 c -0.66,0 -1.11,0 -1.11,-0.77 0,-0.49 0.41,-0.49 1.04,-0.49 l 3.31,0 -2.05,-8.23 c -0.21,-0.87 -0.53,-2.12 -0.53,-2.58 0,-2.05 1.74,-3.31 3.73,-3.31 3.87,0 6.07,4.88 6.07,5.33 0,0.46 -0.45,0.46 -0.56,0.46 -0.41,0 -0.45,-0.07 -0.73,-0.66 -0.98,-2.2 -2.75,-4.15 -4.67,-4.15 -0.73,0 -1.22,0.45 -1.22,1.71 0,0.34 0.14,1.08 0.21,1.43 z"
         inkscape:connector-curvature="0"
         style="fill:#000000;stroke-width:0" /><path
         id="path6015"
         d="m 774.4,418.45 -0.01,0.37 0,0.39 -0.01,0.39 -0.01,0.41 -0.04,0.84 -0.06,0.88 -0.09,0.92 -0.1,0.94 -0.14,0.98 -0.16,1 -0.2,1.02 -0.23,1.04 -0.27,1.05 -0.3,1.06 -0.35,1.06 -0.39,1.07 -0.22,0.53 -0.22,0.54 -0.24,0.53 -0.25,0.53 c -2.99,6.12 -7.27,9.36 -7.77,9.36 -0.3,0 -0.5,-0.2 -0.5,-0.5 0,-0.15 0,-0.25 0.94,-1.15 4.89,-4.92 7.73,-12.85 7.73,-23.26 0,-8.52 -1.85,-17.28 -8.02,-23.56 -0.65,-0.6 -0.65,-0.69 -0.65,-0.85 0,-0.29 0.2,-0.49 0.5,-0.49 0.5,0 4.98,3.38 7.92,9.71 2.54,5.48 3.14,11.01 3.14,15.19 z"
         inkscape:connector-curvature="0"
         style="fill:#000000;stroke-width:0" /></g>  </g>
  <g
     id="g6297"
     transform="matrix(1.4903867,0,0,1.4903867,356.96285,343.23999)">
    <g
       word-spacing="normal"
       letter-spacing="normal"
       font-size-adjust="none"
       font-stretch="normal"
       font-weight="normal"
       font-variant="normal"
       font-style="normal"
       stroke-miterlimit="10.433"
       xml:space="preserve"
       transform="matrix(0.42857143,0,0,-0.42857143,-75,300)"
       id="g6299"
       style="font-style:normal;font-variant:normal;font-weight:normal;font-stretch:normal;letter-spacing:normal;word-spacing:normal;text-anchor:start;fill:none;fill-opacity:1;fill-rule:evenodd;stroke:#000000;stroke-linecap:butt;stroke-linejoin:miter;stroke-miterlimit:10.43299961;stroke-dasharray:none;stroke-dashoffset:0;stroke-opacity:1"><path
         id="path6301"
         d="m 482.95,424.03 0,0.21 -0.01,0.2 -0.01,0.2 -0.02,0.19 -0.02,0.18 -0.02,0.18 -0.03,0.17 -0.03,0.17 -0.04,0.16 -0.04,0.15 -0.04,0.15 -0.05,0.14 -0.05,0.14 -0.05,0.13 -0.06,0.13 -0.05,0.12 -0.06,0.12 -0.07,0.11 -0.06,0.11 -0.07,0.1 -0.06,0.1 -0.07,0.09 -0.08,0.09 -0.07,0.09 -0.07,0.08 -0.08,0.08 -0.15,0.14 -0.16,0.13 -0.16,0.11 -0.15,0.1 -0.16,0.09 -0.15,0.07 -0.15,0.07 -0.15,0.05 -0.14,0.05 -0.13,0.04 -0.13,0.03 -0.11,0.02 -0.11,0.02 -0.09,0.01 -0.08,0.01 -0.06,0 -0.05,0 -0.02,0.01 -0.01,0 -0.01,0 -0.01,0 c -1.99,0 -3.78,-2.1 -3.78,-3.79 0,-1.4 1.04,-1.99 1.49,-2.24 2.09,-1.25 2.49,-2.15 2.49,-3.14 0,-1.1 -2.89,-12.01 -8.72,-12.01 -3.58,0 -3.58,2.99 -3.58,3.89 0,2.89 1.39,6.52 2.99,10.51 0.39,1 0.54,1.44 0.54,2.24 0,2.89 -2.88,4.49 -5.63,4.49 -5.27,0 -7.77,-6.78 -7.77,-7.77 0,-0.7 0.75,-0.7 1.2,-0.7 0.6,0 0.94,0 1.14,0.65 1.6,5.37 4.24,6.02 5.14,6.02 0.34,0 0.84,0 0.84,-1.04 0,-1.15 -0.59,-2.59 -0.75,-2.99 -2.28,-5.78 -3.03,-8.02 -3.03,-10.41 0,-5.28 4.28,-6.68 8.62,-6.68 8.56,0 12.2,14.15 12.2,18.43 z"
         inkscape:connector-curvature="0"
         style="fill:#000000;stroke-width:0" /><path
         id="path6303"
         d="m 492.58,412.77 3.55,0 c 0.67,0 1.12,0 1.12,0.77 0,0.49 -0.45,0.49 -1.05,0.49 l -3.31,0 1.29,5.16 c 0.03,0.17 0.11,0.35 0.11,0.49 0,0.62 -0.49,1.11 -1.19,1.11 -0.87,0 -1.39,-0.59 -1.64,-1.5 -0.24,-0.87 0.21,0.81 -1.32,-5.26 l -3.56,0 c -0.66,0 -1.12,0 -1.12,-0.77 0,-0.49 0.42,-0.49 1.05,-0.49 l 3.31,0 -2.05,-8.23 c -0.21,-0.87 -0.53,-2.12 -0.53,-2.58 0,-2.05 1.74,-3.31 3.73,-3.31 3.87,0 6.07,4.88 6.07,5.33 0,0.46 -0.45,0.46 -0.56,0.46 -0.41,0 -0.45,-0.07 -0.73,-0.66 -0.98,-2.2 -2.75,-4.15 -4.67,-4.15 -0.73,0 -1.22,0.45 -1.22,1.71 0,0.34 0.14,1.08 0.21,1.43 z"
         inkscape:connector-curvature="0"
         style="fill:#000000;stroke-width:0" /><path
         id="path6305"
         d="m 550.97,422.64 -0.01,0.1 0,0.1 0,0.09 -0.01,0.09 -0.01,0.09 -0.01,0.08 -0.01,0.08 -0.01,0.08 -0.01,0.07 -0.02,0.07 -0.01,0.07 -0.02,0.06 -0.02,0.06 -0.02,0.06 -0.02,0.05 -0.02,0.05 -0.03,0.05 -0.02,0.05 -0.03,0.04 -0.03,0.04 -0.02,0.03 -0.03,0.03 -0.03,0.03 -0.03,0.03 -0.04,0.02 -0.03,0.02 -0.03,0.01 -0.04,0.02 -0.03,0.01 -0.04,0 -0.03,0.01 -0.04,0 c -0.25,0 -0.65,-0.35 -0.7,-1.29 -0.2,-4.78 -3.49,-7.53 -6.97,-7.53 -3.14,0 -5.53,2.14 -7.98,4.29 -2.53,2.29 -5.12,4.58 -8.51,4.58 -5.43,0 -8.37,-5.48 -8.37,-10.01 0,-1.59 0.65,-1.59 0.7,-1.59 0.54,0 0.69,0.99 0.69,1.14 0.2,5.48 3.94,7.67 6.98,7.67 3.14,0 5.53,-2.14 7.97,-4.28 2.54,-2.29 5.13,-4.59 8.52,-4.59 5.43,0 8.37,5.49 8.37,10.02 z"
         inkscape:connector-curvature="0"
         style="fill:#000000;stroke-width:0" /><path
         id="path6307"
         d="m 583.24,434.59 0.17,-0.5 0.18,-0.52 0.18,-0.56 0.2,-0.59 0.2,-0.63 0.11,-0.32 0.11,-0.34 0.11,-0.34 0.11,-0.36 0.12,-0.36 0.13,-0.38 0.12,-0.38 0.13,-0.4 0.14,-0.4 0.14,-0.42 0.14,-0.43 0.15,-0.44 0.16,-0.45 0.16,-0.46 0.16,-0.48 0.17,-0.49 0.18,-0.5 0.18,-0.51 0.19,-0.53 0.19,-0.54 0.2,-0.55 0.21,-0.57 c 3.13,-8.47 4.53,-11.56 7.57,-16.29 0.7,-1.05 0.75,-1.1 1.19,-1.1 0.7,0 1.75,0.6 2.29,1 0.7,0.65 0.75,0.7 1.3,3.14 2.99,13.1 6.77,26.75 7.77,29.04 0.05,0.1 1.05,1.99 7.17,2.09 1,0.05 1.95,2.69 1.95,3.79 0,0.8 -0.3,0.8 -1,0.8 -4.98,0 -7.22,-2.1 -7.82,-2.74 -1.4,-1.8 -2.59,-5.43 -4.88,-13.75 -1.75,-6.38 -3.34,-12.85 -4.88,-19.28 -2.74,4.13 -4.29,8.07 -6.68,14.5 -2.64,7.07 -4.23,12.25 -5.58,16.73 -0.29,1 -0.35,1.05 -0.79,1.05 -0.11,0 -1.1,0 -2.54,-1.2 -0.5,-0.45 -0.55,-0.89 -0.6,-1.44 -1.4,-13.25 -6.08,-26.35 -7.42,-28.75 -0.4,-0.74 -1,-1.64 -2,-1.64 -0.5,0 -2.44,0.25 -3.73,1.45 -0.25,0.19 -0.35,0.19 -0.4,0.19 -0.8,0 -1.85,-2.48 -1.85,-3.68 0,-1.55 3.04,-2.54 4.44,-2.54 3.19,0 5.73,7.02 6.53,9.31 3.23,9.02 4.78,16.44 5.72,21.77 z"
         inkscape:connector-curvature="0"
         style="fill:#000000;stroke-width:0" /><path
         id="path6309"
         d="m 632.49,394.04 0,0.03 0,0.03 -0.01,0.01 0,0.02 0,0.01 -0.01,0.02 0,0.02 -0.01,0.01 -0.01,0.02 -0.01,0.02 -0.01,0.03 -0.01,0.02 -0.02,0.02 -0.02,0.03 -0.02,0.03 -0.02,0.03 -0.03,0.03 -0.03,0.04 -0.01,0.02 -0.02,0.02 -0.02,0.02 -0.02,0.02 -0.02,0.02 -0.02,0.03 -0.02,0.02 -0.02,0.02 -0.02,0.03 -0.03,0.02 -0.02,0.03 -0.03,0.03 -0.02,0.03 -0.03,0.03 -0.03,0.03 -0.03,0.03 -0.03,0.03 -0.03,0.03 -0.04,0.04 -0.03,0.03 -0.04,0.04 -0.03,0.03 -0.04,0.04 -0.04,0.04 c -6.23,6.28 -7.82,15.69 -7.82,23.31 0,8.67 1.9,17.34 8.02,23.57 0.65,0.59 0.65,0.69 0.65,0.84 0,0.35 -0.2,0.5 -0.5,0.5 -0.5,0 -4.98,-3.39 -7.92,-9.72 -2.54,-5.47 -3.14,-11 -3.14,-15.19 0,-3.88 0.55,-9.91 3.29,-15.54 2.99,-6.12 7.27,-9.36 7.77,-9.36 0.3,0 0.5,0.15 0.5,0.49 z"
         inkscape:connector-curvature="0"
         style="fill:#000000;stroke-width:0" /><path
         id="path6311"
         d="m 661.35,421.89 0,0.47 0,0.52 -0.01,0.54 -0.01,0.58 -0.03,0.6 -0.03,0.63 -0.05,0.65 -0.06,0.66 -0.08,0.68 -0.11,0.69 -0.12,0.7 -0.15,0.7 -0.17,0.7 -0.2,0.7 -0.24,0.68 -0.26,0.68 -0.31,0.67 -0.33,0.64 -0.38,0.63 -0.42,0.6 -0.47,0.57 -0.51,0.54 -0.27,0.26 -0.29,0.25 -0.29,0.23 -0.32,0.23 -0.32,0.22 -0.34,0.21 -0.35,0.19 -0.36,0.19 -0.38,0.17 -0.4,0.16 -0.4,0.15 -0.43,0.13 -0.44,0.12 -0.45,0.1 -0.47,0.09 -0.49,0.07 -0.5,0.06 -0.52,0.04 -0.54,0.03 -0.55,0.01 0,-1.79 c 1.84,0 3.88,-0.95 4.83,-3.14 0.85,-1.85 0.85,-7.13 0.85,-11.21 0,-2.79 0,-7.33 -0.36,-9.92 -0.69,-4.63 -3.83,-5.32 -5.32,-5.32 l 0,0 c -1.8,0 -4.58,1.09 -5.23,4.73 -0.45,2.59 -0.45,7.77 -0.45,10.51 0,3.58 0,6.82 0.4,9.41 0.59,4.44 4.08,4.94 5.28,4.94 l 0,1.79 c -12.01,0 -12.06,-11.86 -12.06,-16.74 0,-4.93 0.05,-16.44 12.06,-16.44 11.95,0 12.05,11.46 12.05,16.44 z"
         inkscape:connector-curvature="0"
         style="fill:#000000;stroke-width:0" /><path
         id="path6313"
         d="m 674.11,406.05 0,0.31 -0.01,0.29 -0.02,0.29 -0.02,0.28 -0.04,0.27 -0.03,0.26 -0.05,0.26 -0.05,0.24 -0.06,0.24 -0.07,0.23 -0.07,0.22 -0.07,0.21 -0.09,0.2 -0.09,0.19 -0.09,0.18 -0.1,0.18 -0.11,0.16 -0.11,0.15 -0.12,0.15 -0.12,0.13 -0.13,0.13 -0.13,0.11 -0.14,0.1 -0.15,0.1 -0.15,0.08 -0.15,0.07 -0.16,0.06 -0.16,0.05 -0.17,0.04 -0.17,0.03 -0.17,0.02 -0.18,0 c -1.65,0 -2.65,-1.24 -2.65,-2.64 0,-1.34 1,-2.64 2.65,-2.64 0.59,0 1.24,0.2 1.74,0.65 0.15,0.1 0.2,0.15 0.25,0.15 0.05,0 0.1,-0.05 0.1,-0.75 0,-3.69 -1.75,-6.67 -3.39,-8.32 -0.55,-0.55 -0.55,-0.65 -0.55,-0.8 0,-0.34 0.25,-0.54 0.5,-0.54 0.55,0 4.53,3.83 4.53,9.66 z"
         inkscape:connector-curvature="0"
         style="fill:#000000;stroke-width:0" /><path
         id="path6315"
         d="m 717.53,422.89 0.41,0.11 0.41,0.12 0.39,0.12 0.38,0.12 0.73,0.26 0.69,0.26 0.66,0.28 0.61,0.29 0.58,0.29 0.55,0.31 0.51,0.31 0.47,0.32 0.44,0.32 0.42,0.33 0.38,0.33 0.35,0.33 0.32,0.34 0.3,0.33 0.27,0.34 0.25,0.34 0.22,0.33 0.2,0.34 0.18,0.33 0.15,0.33 0.14,0.32 0.11,0.32 0.1,0.31 0.09,0.3 0.06,0.3 0.06,0.28 0.04,0.28 0.02,0.27 0.02,0.26 0,0.24 c 0,4.98 -5.33,7.62 -12.8,7.62 l -17.28,0 c -1,0 -1.85,0 -1.85,-1.44 0,-0.9 0.65,-0.9 2.09,-0.9 1.05,0 2,-0.05 3.04,-0.1 l -7.12,-28.39 c -0.2,-0.8 -0.25,-0.85 -1.15,-0.95 -0.84,-0.05 -1.84,-0.05 -2.64,-0.05 -1.29,0 -1.39,0 -1.59,-0.1 -0.6,-0.35 -0.6,-1.14 -0.6,-1.34 0,-0.1 0.05,-0.9 1.1,-0.9 l 15.04,0 c 0.4,0 0.8,0 1.05,0.35 0.25,0.25 0.35,1.04 0.35,1.1 0,0.89 -0.7,0.89 -2.05,0.89 -1.04,0 -1.99,0.05 -3.04,0.1 l 3.44,13.75 6.03,0 0.2,1.79 -5.78,0 3.24,12.95 c 0.2,0.7 0.25,0.75 0.3,0.8 0.3,0.1 2.49,0.1 3.73,0.1 4.53,0 9.22,0 9.22,-4.13 0,-0.06 -0.2,-4.89 -2.79,-7.48 -0.7,-0.69 -2.94,-2.24 -7.92,-2.24 l -0.2,-1.79 c 1.44,0 4.93,-0.35 4.93,-4.08 0,-0.7 -0.45,-2.5 -0.79,-3.74 -0.5,-2.09 -0.7,-2.84 -0.7,-3.64 0,-5.18 6.67,-5.58 9.26,-5.58 5.28,0 7.13,4.98 7.13,5.78 0,0.9 -0.9,0.9 -1.2,0.9 -0.85,0 -0.99,-0.25 -1.19,-1 -0.65,-1.99 -2.45,-3.88 -4.34,-3.88 -1.34,0 -2.29,0.55 -2.29,3.03 0,0.75 0.05,1.55 0.7,5.54 0.1,0.59 0.25,1.54 0.25,1.99 0,1.94 -1.05,4.18 -4.29,5.38 z"
         inkscape:connector-curvature="0"
         style="fill:#000000;stroke-width:0" /><path
         id="path6317"
         d="m 737.58,412.77 3.55,0 c 0.67,0 1.12,0 1.12,0.77 0,0.49 -0.45,0.49 -1.05,0.49 l -3.31,0 1.29,5.16 c 0.04,0.17 0.1,0.35 0.1,0.49 0,0.62 -0.48,1.11 -1.18,1.11 -0.87,0 -1.39,-0.59 -1.64,-1.5 -0.24,-0.87 0.21,0.81 -1.32,-5.26 l -3.56,0 c -0.66,0 -1.11,0 -1.11,-0.77 0,-0.49 0.41,-0.49 1.04,-0.49 l 3.31,0 -2.05,-8.23 c -0.21,-0.87 -0.53,-2.12 -0.53,-2.58 0,-2.05 1.74,-3.31 3.73,-3.31 3.87,0 6.07,4.88 6.07,5.33 0,0.46 -0.45,0.46 -0.56,0.46 -0.41,0 -0.45,-0.07 -0.73,-0.66 -0.98,-2.2 -2.75,-4.15 -4.67,-4.15 -0.73,0 -1.22,0.45 -1.22,1.71 0,0.34 0.14,1.08 0.21,1.43 z"
         inkscape:connector-curvature="0"
         style="fill:#000000;stroke-width:0" /><path
         id="path6319"
         d="m 761.4,418.45 -0.01,0.37 0,0.39 -0.01,0.39 -0.01,0.41 -0.04,0.84 -0.06,0.88 -0.09,0.92 -0.1,0.94 -0.14,0.98 -0.16,1 -0.2,1.02 -0.23,1.04 -0.27,1.05 -0.3,1.06 -0.35,1.06 -0.39,1.07 -0.22,0.53 -0.22,0.54 -0.24,0.53 -0.25,0.53 c -2.99,6.12 -7.27,9.36 -7.77,9.36 -0.3,0 -0.5,-0.2 -0.5,-0.5 0,-0.15 0,-0.25 0.94,-1.15 4.89,-4.92 7.73,-12.85 7.73,-23.26 0,-8.52 -1.85,-17.28 -8.02,-23.56 -0.65,-0.6 -0.65,-0.69 -0.65,-0.85 0,-0.29 0.2,-0.49 0.5,-0.49 0.5,0 4.98,3.38 7.92,9.71 2.54,5.48 3.14,11.01 3.14,15.19 z"
         inkscape:connector-curvature="0"
         style="fill:#000000;stroke-width:0" /></g>  </g>
  <text
     xml:space="preserve"
     style="font-style:normal;font-weight:normal;font-size:29.41901207px;line-height:125%;font-family:sans-serif;letter-spacing:0px;word-spacing:0px;fill:#000000;fill-opacity:1;stroke:none;stroke-width:1px;stroke-linecap:butt;stroke-linejoin:miter;stroke-opacity:1"
     x="79.718567"
     y="516.88702"
     id="text6400-3"
     sodipodi:linespacing="125%"><tspan
       sodipodi:role="line"
       id="tspan6402-6"
       x="79.718567"
       y="516.88702">uncertainty model</tspan></text>
</svg>
